<svg width="100" height="100" viewBox="0 0 100 100" xmlns="http://www.w3.org/2000/svg">
  <defs>
    <linearGradient id="logoGradient" x1="0%" y1="0%" x2="100%" y2="100%">
      <stop offset="0%" style="stop-color:#2d5016"/>
      <stop offset="100%" style="stop-color:#4a7c59"/>
    </linearGradient>
  </defs>
  
  <!-- Background circle -->
  <circle cx="50" cy="50" r="48" fill="url(#logoGradient)" stroke="#d4af37" stroke-width="2"/>
  
  <!-- Tea cup -->
  <path d="M25 45 L25 65 Q25 75 35 75 L55 75 Q65 75 65 65 L65 45 Z" fill="#f5f5dc" stroke="#2d5016" stroke-width="1.5"/>
  
  <!-- Tea cup handle -->
  <path d="M65 50 Q75 50 75 60 Q75 70 65 70" fill="none" stroke="#f5f5dc" stroke-width="2" stroke-linecap="round"/>
  
  <!-- Tea steam -->
  <path d="M35 40 Q35 35 40 35 Q35 30 40 30" fill="none" stroke="#d4af37" stroke-width="1.5" stroke-linecap="round" opacity="0.8"/>
  <path d="M45 42 Q45 37 50 37 Q45 32 50 32" fill="none" stroke="#d4af37" stroke-width="1.5" stroke-linecap="round" opacity="0.8"/>
  <path d="M55 40 Q55 35 60 35 Q55 30 60 30" fill="none" stroke="#d4af37" stroke-width="1.5" stroke-linecap="round" opacity="0.8"/>
  
  <!-- Tea leaf decoration -->
  <path d="M20 25 Q25 20 30 25 Q25 30 20 25" fill="#8fbc8f"/>
  <path d="M70 75 Q75 70 80 75 Q75 80 70 75" fill="#8fbc8f"/>
  
  <!-- Brand initial "N" -->
  <text x="50" y="58" font-family="serif" font-size="18" font-weight="bold" text-anchor="middle" fill="#2d5016">N</text>
</svg>